<svg width="400" height="300" viewBox="0 0 400 300" fill="none" xmlns="http://www.w3.org/2000/svg">
  <!-- Background -->
  <rect width="400" height="300" fill="#f8fafc"/>
  
  <!-- Main box -->
  <g transform="translate(200,140)">
    <!-- Box base -->
    <rect x="-40" y="-20" width="80" height="40" fill="#8b5cf6"/>
    <!-- Box top -->
    <path d="M-40,-20 L-20,-40 L60,-40 L40,-20 Z" fill="#a78bfa"/>
    <!-- Box side -->
    <path d="M40,-20 L60,-40 L60,0 L40,20 Z" fill="#7c3aed"/>

    <!-- Package tape -->
    <rect x="-40" y="-5" width="80" height="10" fill="#fbbf24" opacity="0.8"/>
    <rect x="-5" y="-20" width="10" height="40" fill="#fbbf24" opacity="0.8"/>
  </g>

  <!-- Smaller boxes -->
  <g transform="translate(120,180)">
    <rect x="-20" y="-15" width="40" height="30" fill="#a78bfa" opacity="0.8"/>
    <path d="M-20,-15 L-10,-25 L30,-25 L20,-15 Z" fill="#c4b5fd"/>
    <path d="M20,-15 L30,-25 L30,5 L20,15 Z" fill="#9333ea"/>
    <rect x="-20" y="-3" width="40" height="6" fill="#fbbf24" opacity="0.6"/>
  </g>

  <g transform="translate(280,180)">
    <rect x="-20" y="-15" width="40" height="30" fill="#a78bfa" opacity="0.8"/>
    <path d="M-20,-15 L-10,-25 L30,-25 L20,-15 Z" fill="#c4b5fd"/>
    <path d="M20,-15 L30,-25 L30,5 L20,15 Z" fill="#9333ea"/>
    <rect x="-20" y="-3" width="40" height="6" fill="#fbbf24" opacity="0.6"/>
  </g>

  <!-- Conveyor belt -->
  <rect x="50" y="210" width="300" height="8" fill="#6b7280"/>
  <circle cx="70" cy="214" r="4" fill="#4b5563"/>
  <circle cx="110" cy="214" r="4" fill="#4b5563"/>
  <circle cx="150" cy="214" r="4" fill="#4b5563"/>
  <circle cx="190" cy="214" r="4" fill="#4b5563"/>
  <circle cx="230" cy="214" r="4" fill="#4b5563"/>
  <circle cx="270" cy="214" r="4" fill="#4b5563"/>
  <circle cx="310" cy="214" r="4" fill="#4b5563"/>
  <circle cx="330" cy="214" r="4" fill="#4b5563"/>
  

</svg>
