<svg width="400" height="300" viewBox="0 0 400 300" fill="none" xmlns="http://www.w3.org/2000/svg">
  <!-- Background -->
  <rect width="400" height="300" fill="#f8fafc"/>
  
  <!-- Main gear -->
  <g transform="translate(200,150)">
    <circle r="45" fill="#10b981"/>
    <circle r="25" fill="white"/>
    <!-- Gear teeth -->
    <rect x="-5" y="-50" width="10" height="10" fill="#10b981"/>
    <rect x="-5" y="40" width="10" height="10" fill="#10b981"/>
    <rect x="-50" y="-5" width="10" height="10" fill="#10b981"/>
    <rect x="40" y="-5" width="10" height="10" fill="#10b981"/>
    <rect x="-35" y="-35" width="10" height="10" fill="#10b981" transform="rotate(45)"/>
    <rect x="25" y="-35" width="10" height="10" fill="#10b981" transform="rotate(-45)"/>
    <rect x="-35" y="25" width="10" height="10" fill="#10b981" transform="rotate(-45)"/>
    <rect x="25" y="25" width="10" height="10" fill="#10b981" transform="rotate(45)"/>
  </g>

  <!-- Smaller gears -->
  <g transform="translate(130,110)">
    <circle r="25" fill="#34d399" opacity="0.8"/>
    <circle r="15" fill="white"/>
    <rect x="-3" y="-28" width="6" height="6" fill="#34d399"/>
    <rect x="-3" y="22" width="6" height="6" fill="#34d399"/>
    <rect x="-28" y="-3" width="6" height="6" fill="#34d399"/>
    <rect x="22" y="-3" width="6" height="6" fill="#34d399"/>
  </g>

  <g transform="translate(270,190)">
    <circle r="25" fill="#34d399" opacity="0.8"/>
    <circle r="15" fill="white"/>
    <rect x="-3" y="-28" width="6" height="6" fill="#34d399"/>
    <rect x="-3" y="22" width="6" height="6" fill="#34d399"/>
    <rect x="-28" y="-3" width="6" height="6" fill="#34d399"/>
    <rect x="22" y="-3" width="6" height="6" fill="#34d399"/>
  </g>

  <!-- Wrench -->
  <g transform="translate(320,120) rotate(30)">
    <rect x="-2" y="-20" width="4" height="40" fill="#6b7280"/>
    <circle cx="0" cy="-25" r="8" fill="#6b7280"/>
    <circle cx="0" cy="-25" r="5" fill="white"/>
  </g>
  

</svg>
